<svg xmlns="http://www.w3.org/2000/svg" viewBox="0 0 256 256">

<defs>
  <linearGradient id="g" x1="0%" y1="0%" x2="100%" y2="100%">
    <stop offset="0%" stop-color="#8B5CF6"/>
    <stop offset="100%" stop-color="#3B82F6"/>
  </linearGradient>
</defs>
<style>
  .bg { fill: #0f172a; }
  .ring { fill: url(#g); opacity: 0.12; }
  .label { fill: white; font-family: Inter, system-ui, -apple-system, 'Segoe UI', Roboto, 'Helvetica Neue', Arial; font-weight:700; }
  .glow { filter: drop-shadow(0 0 14px rgba(139,92,246,0.55)); }
  @keyframes pulse { 0% { filter: drop-shadow(0 0 10px rgba(139,92,246,0.45)); } 50% { filter: drop-shadow(0 0 22px rgba(59,130,246,0.8)); } 100% { filter: drop-shadow(0 0 10px rgba(139,92,246,0.45)); } }
  .anim { animation: pulse 3s ease-in-out infinite; }
</style>

<rect width="100%" height="100%" rx="28" class="bg"/>
<circle cx="128" cy="112" r="76" class="ring"/>
<g transform="translate(0,8)" class="glow anim">
  <path d="M84 84c0-18 12-32 34-32h18v16h-18c-10 0-16 6-16 16v8h34c18 0 32 12 32 34v18h-16v-18c0-8-6-12-12-12H100v16h36v16H100c-22 0-36-12-36-34v-18z" fill="white" opacity="0.95"/>
  <circle cx="98" cy="84" r="6" fill="#0f172a"/>
  <circle cx="170" cy="136" r="6" fill="#0f172a"/>
</g>
<text x="50%" y="90%" text-anchor="middle" class="label" font-size="20">Python</text>
</svg>